<svg width="17" height="17" viewBox="0 0 17 17" fill="none" xmlns="http://www.w3.org/2000/svg">
<g filter="url(#filter0_d)">
<path d="M7.55279 0.894427C7.73705 0.525903 8.26295 0.525903 8.44721 0.894427L15.6382 15.2764C15.8044 15.6088 15.5627 16 15.191 16H12.5532C12.3747 16 12.2101 15.9056 12.1182 15.7526C11.818 15.2528 11.1107 14.1119 10.5095 13.4222C10.3128 13.1965 10.0728 12.9565 9.82568 12.7251C9.44985 12.3732 8.87693 12.7885 9.02252 13.2823C9.06764 13.4354 9.10767 13.5848 9.1393 13.7244C9.25924 14.2538 9.33594 14.9835 9.37755 15.4725C9.40191 15.7589 9.1744 16 8.88705 16H0.809016C0.437325 16 0.195578 15.6088 0.361803 15.2764L7.55279 0.894427Z" fill="#C51414"/>
</g>
<g filter="url(#filter1_i)">
<path d="M9.64479 6.60523C9.55712 6.48132 9.42012 6.42117 9.282 6.43669L5.90138 6.93427L4.56201 5.04128C4.35988 4.75561 3.99702 4.71341 3.74962 4.9468C3.50222 5.1802 3.46568 5.5992 3.6678 5.88487L5.00718 7.77786L3.9108 11.5038C3.86765 11.6536 3.89382 11.824 3.98148 11.9479C4.15195 12.1889 4.47883 12.1732 4.63038 11.9097L6.10303 9.32667L7.4424 11.2197L7.23463 12.1905C7.2178 12.258 7.23347 12.3293 7.27243 12.3844L7.41611 12.5874C7.49647 12.701 7.6503 12.6936 7.72376 12.5727L8.37655 11.4862L9.42871 10.9642C9.54601 10.9052 9.58295 10.7326 9.50259 10.6191L9.35891 10.416C9.31995 10.3609 9.26255 10.329 9.20189 10.3346L8.33661 10.3761L6.99723 8.48308L9.48293 7.33183C9.73676 7.2129 9.81525 6.84615 9.64479 6.60523Z" fill="white"/>
</g>
<path d="M9.26903 6.22442L9.26902 6.22433L9.26345 6.22515L5.98378 6.70787L4.70748 4.90404C4.44469 4.53261 3.96572 4.47069 3.6341 4.78354C3.30248 5.09639 3.25952 5.65069 3.52232 6.02211L4.79861 7.82594L3.73498 11.4407L3.73497 11.4407L3.73459 11.442C3.67124 11.6618 3.70991 11.907 3.836 12.0852C4.07956 12.4294 4.55835 12.417 4.78453 12.0237L4.78496 12.023L6.11615 9.68807L7.24015 11.2767L7.05501 12.1418C7.02114 12.2837 7.05688 12.4226 7.12695 12.5216L7.27063 12.7247C7.42464 12.9423 7.72703 12.9353 7.87517 12.6914L7.87572 12.6904L8.49699 11.6564L9.49835 11.1597L9.49924 11.1592C9.73577 11.0402 9.80207 10.6995 9.64807 10.4818L9.50439 10.2787C9.43432 10.1797 9.32358 10.1116 9.19637 10.1216L8.42531 10.1586L7.30131 8.56999L9.54825 7.52933L9.54897 7.52899C9.9278 7.35149 10.0338 6.81221 9.79026 6.46798C9.6625 6.28741 9.46495 6.20241 9.26903 6.22442Z" stroke="#C51414" stroke-width="0.4"/>
<defs>
<filter id="filter0_d" x="0.308594" y="0.518164" width="15.9833" height="15.782" filterUnits="userSpaceOnUse" color-interpolation-filters="sRGB">
<feFlood flood-opacity="0" result="BackgroundImageFix"/>
<feColorMatrix in="SourceAlpha" type="matrix" values="0 0 0 0 0 0 0 0 0 0 0 0 0 0 0 0 0 0 127 0"/>
<feOffset dx="0.4" dy="0.1"/>
<feGaussianBlur stdDeviation="0.1"/>
<feColorMatrix type="matrix" values="0 0 0 0 0 0 0 0 0 0 0 0 0 0 0 0 0 0 0.25 0"/>
<feBlend mode="darken" in2="BackgroundImageFix" result="effect1_dropShadow"/>
<feBlend mode="normal" in="SourceGraphic" in2="effect1_dropShadow" result="shape"/>
</filter>
<filter id="filter1_i" x="3.16602" y="4.36914" width="7.94059" height="9.72541" filterUnits="userSpaceOnUse" color-interpolation-filters="sRGB">
<feFlood flood-opacity="0" result="BackgroundImageFix"/>
<feBlend mode="normal" in="SourceGraphic" in2="BackgroundImageFix" result="shape"/>
<feColorMatrix in="SourceAlpha" type="matrix" values="0 0 0 0 0 0 0 0 0 0 0 0 0 0 0 0 0 0 127 0" result="hardAlpha"/>
<feOffset dx="1" dy="1"/>
<feGaussianBlur stdDeviation="1"/>
<feComposite in2="hardAlpha" operator="arithmetic" k2="-1" k3="1"/>
<feColorMatrix type="matrix" values="0 0 0 0 0 0 0 0 0 0 0 0 0 0 0 0 0 0 0.15 0"/>
<feBlend mode="normal" in2="shape" result="effect1_innerShadow"/>
</filter>
</defs>
</svg>
