<svg width="138" height="47" viewBox="0 0 138 47" fill="none" xmlns="http://www.w3.org/2000/svg">
<g filter="url(#filter0_d)">
<path d="M25.2879 1.2C25.5959 0.666666 26.3657 0.666667 26.6736 1.2L51.2687 43.8C51.5766 44.3333 51.1917 45 50.5759 45H40.2586C39.9913 45 39.743 44.8686 39.592 44.648C38.8118 43.5084 36.2653 39.8708 34.1308 37.75C32.8705 36.4979 31.0647 35.0897 29.6097 34.0185C28.951 33.5336 28.0865 34.2596 28.4024 35.0139C28.8842 36.1645 29.391 37.4925 29.6808 38.6C30.136 40.3401 30.3995 42.8502 30.5133 44.1493C30.5537 44.61 30.1888 45 29.7262 45H1.38564C0.769802 45 0.3849 44.3333 0.69282 43.8L25.2879 1.2Z" fill="#AC0000"/>
</g>
<g filter="url(#filter1_i)">
<path d="M31.3221 18.5775C31.0374 18.229 30.5925 18.0598 30.1439 18.1035L19.3851 19.4749C19.2482 19.4923 19.112 19.438 19.0247 19.3312L14.8153 14.1789C14.1589 13.3755 12.9805 13.2568 12.177 13.9132C11.3736 14.5696 11.2549 15.7481 11.9113 16.5515L16.1207 21.7038C16.208 21.8106 16.2341 21.9549 16.1897 22.0855L12.7005 32.3549C12.5603 32.776 12.6453 33.2554 12.93 33.6039C13.4836 34.2815 14.5452 34.2374 15.0374 33.4963L19.5205 26.6863C19.669 26.4608 19.9936 26.4441 20.1644 26.6532L24.0431 31.4007C24.1228 31.4982 24.1519 31.6275 24.1217 31.7497L23.4949 34.2859C23.4403 34.4759 23.4911 34.6764 23.6177 34.8313L24.0843 35.4024C24.3453 35.7219 24.8448 35.7011 25.0834 35.3609L27.138 32.3995C27.1808 32.338 27.2399 32.2896 27.3088 32.26L30.6204 30.8372C31.0014 30.6712 31.1213 30.1858 30.8603 29.8664L30.3937 29.2953C30.2672 29.1404 30.0808 29.0506 29.8838 29.0663L27.2735 29.1747C27.1477 29.1799 27.0268 29.1256 26.9472 29.0281L23.0684 24.2806C22.8976 24.0715 22.9787 23.7568 23.2293 23.6563L30.7965 20.6211C31.6208 20.2866 31.8757 19.2551 31.3221 18.5775Z" fill="white"/>
</g>
<path d="M30.0955 17.6059L30.0881 17.6066L30.0807 17.6075L19.3769 18.9719L15.2025 13.8626C14.3714 12.8453 12.878 12.6949 11.8607 13.526C10.8434 14.3571 10.693 15.8506 11.5241 16.8678L15.6984 21.9772L12.2271 32.194L12.227 32.194L12.226 32.197C12.0323 32.7794 12.1488 33.438 12.5428 33.9203C13.3083 34.8572 14.7745 34.7959 15.4539 33.773L15.455 33.7713L19.8633 27.0749L23.6243 31.6783L23.0115 34.1582C22.9111 34.5208 23.015 34.884 23.2305 35.1477L23.6971 35.7188C24.1711 36.2989 25.067 36.2551 25.4928 35.648L25.4942 35.646L27.5325 32.7081L30.8178 31.2966L30.8201 31.2956C31.4999 30.9994 31.7215 30.1302 31.2475 29.5501L30.7809 28.9789C30.5655 28.7152 30.2304 28.5409 29.855 28.567L27.3027 28.6731L23.5418 24.0697L30.9826 21.0852L30.9845 21.0844C32.1224 20.6227 32.4748 19.1981 31.7093 18.2612C31.3108 17.7734 30.6974 17.5473 30.0955 17.6059ZM19.9382 26.9613C19.9381 26.9613 19.9381 26.9614 19.938 26.9615L19.9382 26.9613ZM27.5488 32.6846C27.5488 32.6847 27.5487 32.6848 27.5486 32.6849L27.5488 32.6846ZM27.5066 32.7192C27.5064 32.7193 27.5063 32.7194 27.5062 32.7194L27.5066 32.7192ZM23.4154 24.1203L23.4156 24.1203L23.4154 24.1203Z" stroke="#AC0000"/>
<path d="M69.96 9H75.3V9.38H74.2V22.62H75.3V23H69.2V22.62H70.3V10.12H70.22L67.22 23H64.72L61.2 10.06H61.12V22.62H62.22V23H59.5V22.62H60.6V9.38H59.5V9H64.9L67.56 19.3L69.96 9ZM78.9369 12.1C78.2302 12.1 77.7235 11.92 77.4169 11.56C77.1235 11.2 76.9769 10.7533 76.9769 10.22C76.9769 9.68667 77.1369 9.24667 77.4569 8.9C77.7902 8.55333 78.2902 8.38 78.9569 8.38C79.6235 8.38 80.1302 8.54 80.4769 8.86C80.8235 9.16667 80.9969 9.61333 80.9969 10.2C80.9969 10.7733 80.8302 11.2333 80.4969 11.58C80.1635 11.9267 79.6435 12.1 78.9369 12.1ZM75.9169 13.48H80.8169V22.64H81.9369V23H75.9969V22.64H77.0969V13.84H75.9169V13.48ZM82.3845 13.48H87.2045V15.32C87.4179 14.7067 87.7445 14.2133 88.1845 13.84C88.6245 13.4667 89.2912 13.28 90.1845 13.28C92.2512 13.28 93.2845 14.3933 93.2845 16.62V22.64H94.4045V23H88.7445V22.64H89.5645V16.14C89.5645 15.34 89.5112 14.8267 89.4045 14.6C89.2979 14.36 89.1045 14.24 88.8245 14.24C88.3979 14.24 88.0179 14.52 87.6845 15.08C87.3645 15.64 87.2045 16.32 87.2045 17.12V22.64H88.0645V23H82.3845V22.64H83.4845V13.84H82.3845V13.48ZM99.4688 18.3H100.049V16.76C100.049 15.4933 99.9754 14.6467 99.8288 14.22C99.6954 13.78 99.4288 13.56 99.0288 13.56C98.7888 13.56 98.5688 13.6267 98.3688 13.76C98.1821 13.88 98.0888 14.0533 98.0888 14.28C98.0888 14.4933 98.1288 14.7133 98.2088 14.94H98.7088C98.8154 15.22 98.8688 15.56 98.8688 15.96C98.8688 16.3467 98.7021 16.6867 98.3688 16.98C98.0354 17.26 97.6154 17.4 97.1087 17.4C95.9621 17.4 95.3888 16.8467 95.3888 15.74C95.3888 14.1 96.7821 13.28 99.5688 13.28C101.155 13.28 102.249 13.5533 102.849 14.1C103.462 14.6333 103.769 15.62 103.769 17.06V21.12C103.769 21.8133 103.962 22.16 104.349 22.16C104.802 22.16 105.069 21.4733 105.149 20.1L105.449 20.12C105.395 21.2933 105.175 22.1 104.789 22.54C104.402 22.98 103.769 23.2 102.889 23.2C101.289 23.2 100.369 22.7067 100.129 21.72C99.9554 22.2267 99.6954 22.6 99.3488 22.84C99.0021 23.08 98.4954 23.2 97.8288 23.2C95.8554 23.2 94.8688 22.3933 94.8688 20.78C94.8688 19.8333 95.2421 19.1867 95.9888 18.84C96.7488 18.48 97.9088 18.3 99.4688 18.3ZM98.6688 20.76C98.6688 21.4533 98.7021 21.9 98.7688 22.1C98.8488 22.3 98.9888 22.4 99.1888 22.4C99.4021 22.4 99.5954 22.2333 99.7688 21.9C99.9554 21.5533 100.049 21.08 100.049 20.48V18.62H99.9088C99.0821 18.62 98.6688 19.2267 98.6688 20.44V20.76ZM106.105 23.2V19.62H106.345C106.692 20.78 107.159 21.5933 107.745 22.06C108.332 22.5267 109.065 22.76 109.945 22.76C111.305 22.76 111.985 22.3267 111.985 21.46C111.985 21.0867 111.819 20.8067 111.485 20.62C110.965 20.3267 110.299 20.1 109.485 19.94C108.579 19.7 107.819 19.38 107.205 18.98C106.472 18.5 106.105 17.74 106.105 16.7C106.105 15.66 106.425 14.8333 107.065 14.22C107.705 13.5933 108.559 13.28 109.625 13.28C110.279 13.28 110.952 13.4333 111.645 13.74C111.899 13.8467 112.092 13.9 112.225 13.9C112.359 13.9 112.472 13.8533 112.565 13.76C112.659 13.6667 112.772 13.4933 112.905 13.24H113.125V16.3H112.885C112.205 14.5667 111.152 13.7 109.725 13.7C109.099 13.7 108.632 13.8133 108.325 14.04C108.019 14.2533 107.865 14.5267 107.865 14.86C107.865 15.06 107.912 15.22 108.005 15.34C108.099 15.4467 108.172 15.5267 108.225 15.58C108.279 15.6333 108.365 15.6933 108.485 15.76C108.605 15.8133 108.705 15.86 108.785 15.9C108.865 15.9267 108.985 15.9667 109.145 16.02C109.319 16.0733 109.445 16.1067 109.525 16.12C110.432 16.3467 111.085 16.5467 111.485 16.72C111.885 16.88 112.265 17.08 112.625 17.32C113.359 17.8267 113.725 18.6467 113.725 19.78C113.725 20.9 113.392 21.7533 112.725 22.34C112.059 22.9133 111.145 23.2 109.985 23.2C109.159 23.2 108.359 23.0067 107.585 22.62C107.425 22.5133 107.299 22.46 107.205 22.46C106.912 22.46 106.625 22.7067 106.345 23.2H106.105ZM71.72 29L71.92 34.02H71.54C70.9533 32.2467 70.4333 31.04 69.98 30.4C69.5267 29.7467 68.8733 29.42 68.02 29.42H67.78V42.58H69.48V43H62.18V42.58H63.88V29.42H63.62C62.7667 29.42 62.1067 29.76 61.64 30.44C61.1733 31.1067 60.66 32.3 60.1 34.02H59.72L59.92 29H71.72ZM84.357 43H79.797L79.577 41.54C79.3637 42.0733 79.0437 42.4867 78.617 42.78C78.2037 43.06 77.5837 43.2 76.757 43.2C74.6904 43.2 73.657 42.0867 73.657 39.86V33.84H72.537V33.48H77.377V40.34C77.377 41.14 77.4304 41.6667 77.537 41.92C77.657 42.1733 77.8837 42.3 78.217 42.3C78.5637 42.3 78.8704 42.0933 79.137 41.68C79.4037 41.2667 79.537 40.6933 79.537 39.96V33.84H78.617V33.48H83.257V42.64H84.357V43ZM91.4464 34.04C90.9531 34.04 90.5197 34.36 90.1464 35C89.7731 35.64 89.5864 36.4 89.5864 37.28V42.64H91.0064V43H84.7664V42.64H85.8664V33.84H84.7664V33.48H89.5864V35.4C89.7597 34.72 90.0931 34.2 90.5864 33.84C91.0797 33.4667 91.6397 33.28 92.2664 33.28C92.8931 33.28 93.3997 33.46 93.7864 33.82C94.1864 34.1667 94.3864 34.6667 94.3864 35.32C94.3864 35.96 94.2397 36.4533 93.9464 36.8C93.6531 37.1467 93.1997 37.32 92.5864 37.32C91.9864 37.32 91.5397 37.12 91.2464 36.72C90.9664 36.32 90.9331 35.7667 91.1464 35.06H91.8664C92.1997 34.38 92.0597 34.04 91.4464 34.04ZM97.6088 32.1C96.9021 32.1 96.3954 31.92 96.0888 31.56C95.7954 31.2 95.6488 30.7533 95.6488 30.22C95.6488 29.6867 95.8088 29.2467 96.1288 28.9C96.4621 28.5533 96.9621 28.38 97.6288 28.38C98.2954 28.38 98.8021 28.54 99.1488 28.86C99.4954 29.1667 99.6688 29.6133 99.6688 30.2C99.6688 30.7733 99.5021 31.2333 99.1688 31.58C98.8354 31.9267 98.3154 32.1 97.6088 32.1ZM94.5888 33.48H99.4888V42.64H100.609V43H94.6688V42.64H95.7688V33.84H94.5888V33.48ZM101.476 43.2V39.62H101.716C102.063 40.78 102.53 41.5933 103.116 42.06C103.703 42.5267 104.436 42.76 105.316 42.76C106.676 42.76 107.356 42.3267 107.356 41.46C107.356 41.0867 107.19 40.8067 106.856 40.62C106.336 40.3267 105.67 40.1 104.856 39.94C103.95 39.7 103.19 39.38 102.576 38.98C101.843 38.5 101.476 37.74 101.476 36.7C101.476 35.66 101.796 34.8333 102.436 34.22C103.076 33.5933 103.93 33.28 104.996 33.28C105.65 33.28 106.323 33.4333 107.016 33.74C107.27 33.8467 107.463 33.9 107.596 33.9C107.73 33.9 107.843 33.8533 107.936 33.76C108.03 33.6667 108.143 33.4933 108.276 33.24H108.496V36.3H108.256C107.576 34.5667 106.523 33.7 105.096 33.7C104.47 33.7 104.003 33.8133 103.696 34.04C103.39 34.2533 103.236 34.5267 103.236 34.86C103.236 35.06 103.283 35.22 103.376 35.34C103.47 35.4467 103.543 35.5267 103.596 35.58C103.65 35.6333 103.736 35.6933 103.856 35.76C103.976 35.8133 104.076 35.86 104.156 35.9C104.236 35.9267 104.356 35.9667 104.516 36.02C104.69 36.0733 104.816 36.1067 104.896 36.12C105.803 36.3467 106.456 36.5467 106.856 36.72C107.256 36.88 107.636 37.08 107.996 37.32C108.73 37.8267 109.096 38.6467 109.096 39.78C109.096 40.9 108.763 41.7533 108.096 42.34C107.43 42.9133 106.516 43.2 105.356 43.2C104.53 43.2 103.73 43.0067 102.956 42.62C102.796 42.5133 102.67 42.46 102.576 42.46C102.283 42.46 101.996 42.7067 101.716 43.2H101.476ZM109.552 33.48H114.372V35.32C114.812 33.96 115.778 33.28 117.272 33.28C118.778 33.28 119.692 34 120.012 35.44C120.478 34 121.458 33.28 122.952 33.28C124.912 33.28 125.892 34.3933 125.892 36.62V42.64H127.012V43H121.472V42.64H122.172V36.14C122.172 35.1267 122.085 34.5333 121.912 34.36C121.832 34.28 121.725 34.24 121.592 34.24C121.205 34.24 120.865 34.5 120.572 35.02C120.278 35.54 120.132 36.2 120.132 37V42.64H120.852V43H115.712V42.64H116.412V36.14C116.412 35.1267 116.325 34.5333 116.152 34.36C116.072 34.28 115.965 34.24 115.832 34.24C115.458 34.24 115.118 34.5267 114.812 35.1C114.518 35.66 114.372 36.3333 114.372 37.12V42.64H115.092V43H109.552V42.64H110.652V33.84H109.552V33.48ZM133.765 39.06V37.36C133.765 36.0667 133.692 35.1267 133.545 34.54C133.412 33.94 133.092 33.64 132.585 33.64C132.292 33.64 132.052 33.7267 131.865 33.9C131.692 34.06 131.565 34.3333 131.485 34.72C131.365 35.32 131.305 36.2333 131.305 37.46V39.02C131.305 40.4733 131.345 41.3467 131.425 41.64C131.519 41.9333 131.612 42.1733 131.705 42.36C131.852 42.68 132.139 42.84 132.565 42.84C133.085 42.84 133.425 42.54 133.585 41.94C133.705 41.5133 133.765 40.5533 133.765 39.06ZM132.525 43.2C130.859 43.2 129.599 42.7733 128.745 41.92C127.892 41.0667 127.465 39.8467 127.465 38.26C127.465 36.66 127.919 35.4333 128.825 34.58C129.745 33.7133 131.032 33.28 132.685 33.28C134.339 33.28 135.572 33.68 136.385 34.48C137.199 35.2667 137.605 36.4733 137.605 38.1C137.605 41.5 135.912 43.2 132.525 43.2Z" fill="#AC0000"/>
<defs>
<filter id="filter0_d" x="0.584473" y="0.799988" width="53.2926" height="46.2" filterUnits="userSpaceOnUse" color-interpolation-filters="sRGB">
<feFlood flood-opacity="0" result="BackgroundImageFix"/>
<feColorMatrix in="SourceAlpha" type="matrix" values="0 0 0 0 0 0 0 0 0 0 0 0 0 0 0 0 0 0 127 0"/>
<feOffset dx="1.5" dy="1"/>
<feGaussianBlur stdDeviation="0.5"/>
<feColorMatrix type="matrix" values="0 0 0 0 0 0 0 0 0 0 0 0 0 0 0 0 0 0 0.25 0"/>
<feBlend mode="normal" in2="BackgroundImageFix" result="effect1_dropShadow"/>
<feBlend mode="normal" in="SourceGraphic" in2="effect1_dropShadow" result="shape"/>
</filter>
<filter id="filter1_i" x="1.57373" y="4.99292" width="37.8964" height="39.0451" filterUnits="userSpaceOnUse" color-interpolation-filters="sRGB">
<feFlood flood-opacity="0" result="BackgroundImageFix"/>
<feBlend mode="normal" in="SourceGraphic" in2="BackgroundImageFix" result="shape"/>
<feColorMatrix in="SourceAlpha" type="matrix" values="0 0 0 0 0 0 0 0 0 0 0 0 0 0 0 0 0 0 127 0" result="hardAlpha"/>
<feOffset dx="1" dy="2"/>
<feGaussianBlur stdDeviation="1"/>
<feComposite in2="hardAlpha" operator="arithmetic" k2="-1" k3="1"/>
<feColorMatrix type="matrix" values="0 0 0 0 0 0 0 0 0 0 0 0 0 0 0 0 0 0 0.15 0"/>
<feBlend mode="normal" in2="shape" result="effect1_innerShadow"/>
</filter>
</defs>
</svg>
