<svg width="146" height="51" viewBox="0 0 146 51" fill="none" xmlns="http://www.w3.org/2000/svg">
<g filter="url(#filter0_d)">
<path d="M25.9808 1L51.9615 46H39.8308C39.8308 46 36.6857 41.2885 34.1308 38.75C31.684 36.319 27.1808 33.3 27.1808 33.3C27.1808 33.3 29.0108 37.0393 29.6808 39.6C30.3196 42.0418 30.5808 46 30.5808 46H0L25.9808 1Z" fill="#C51414"/>
</g>
<g filter="url(#filter1_i)">
<path d="M31.3221 19.5774C31.0374 19.2289 30.5925 19.0597 30.1439 19.1034L19.1651 20.5028L14.8153 15.1788C14.1589 14.3753 12.9805 14.2567 12.177 14.9131C11.3736 15.5695 11.2549 16.7479 11.9113 17.5514L16.261 22.8754L12.7005 33.3547C12.5603 33.7759 12.6453 34.2553 12.93 34.6038C13.4836 35.2814 14.5452 35.2373 15.0374 34.4962L19.8199 27.2314L24.1697 32.5555L23.4949 35.2858C23.4403 35.4758 23.4911 35.6763 23.6177 35.8312L24.0843 36.4023C24.3453 36.7218 24.8448 36.701 25.0834 36.3608L27.2034 33.3052L30.6204 31.8371C31.0014 31.6711 31.1213 31.1857 30.8603 30.8663L30.3937 30.2952C30.2672 30.1403 30.0808 30.0504 29.8838 30.0661L27.0737 30.1829L22.7239 24.8588L30.7965 21.621C31.6208 21.2865 31.8757 20.255 31.3221 19.5774Z" fill="white"/>
</g>
<path d="M30.1246 18.9043L30.1246 18.9042L30.1186 18.905L19.2498 20.2904L14.9702 15.0522C14.2439 14.1633 12.9395 14.0319 12.0505 14.7582C11.1615 15.4845 11.0301 16.7889 11.7564 17.6779L16.036 22.9161L12.5111 33.2904L12.5107 33.2916C12.3491 33.7772 12.4467 34.3283 12.7751 34.7303C13.4135 35.5117 14.6369 35.4607 15.204 34.6069L15.2044 34.6062L19.8373 27.5688L23.9515 32.6046L23.3016 35.2344C23.2285 35.4936 23.3007 35.7593 23.4628 35.9577L23.9294 36.5289C24.2756 36.9526 24.9337 36.9226 25.2472 36.4757L25.2477 36.4748L27.335 33.4663L30.6994 32.0208L30.7003 32.0204C31.2008 31.8024 31.3614 31.1635 31.0152 30.7397L30.5486 30.1686C30.3865 29.9702 30.1405 29.8465 29.8719 29.8664L27.1653 29.9789L23.0511 24.9431L30.871 21.8066L30.8717 21.8063C31.8214 21.4209 32.1154 20.2322 31.477 19.4508C31.1468 19.0466 30.6345 18.8547 30.1246 18.9043Z" stroke="#C51414" stroke-width="0.4"/>
<g filter="url(#filter2_d)">
<path d="M77.4 25L77.38 16.6L73.26 23.52H71.8L67.7 16.78V25H64.66V11H67.34L72.58 19.7L77.74 11H80.4L80.44 25H77.4ZM83.7616 11H87.0016V25H83.7616V11ZM103.164 11V25H100.504L93.5241 16.5V25H90.3241V11H93.0041L99.9641 19.5V11H103.164ZM115.696 22H109.196L107.956 25H104.636L110.876 11H114.076L120.336 25H116.936L115.696 22ZM114.676 19.54L112.456 14.18L110.236 19.54H114.676ZM126.389 25.24C125.282 25.24 124.209 25.0933 123.169 24.8C122.142 24.4933 121.316 24.1 120.689 23.62L121.789 21.18C122.389 21.62 123.102 21.9733 123.929 22.24C124.756 22.5067 125.582 22.64 126.409 22.64C127.329 22.64 128.009 22.5067 128.449 22.24C128.889 21.96 129.109 21.5933 129.109 21.14C129.109 20.8067 128.976 20.5333 128.709 20.32C128.456 20.0933 128.122 19.9133 127.709 19.78C127.309 19.6467 126.762 19.5 126.069 19.34C125.002 19.0867 124.129 18.8333 123.449 18.58C122.769 18.3267 122.182 17.92 121.689 17.36C121.209 16.8 120.969 16.0533 120.969 15.12C120.969 14.3067 121.189 13.5733 121.629 12.92C122.069 12.2533 122.729 11.7267 123.609 11.34C124.502 10.9533 125.589 10.76 126.869 10.76C127.762 10.76 128.636 10.8667 129.489 11.08C130.342 11.2933 131.089 11.6 131.729 12L130.729 14.46C129.436 13.7267 128.142 13.36 126.849 13.36C125.942 13.36 125.269 13.5067 124.829 13.8C124.402 14.0933 124.189 14.48 124.189 14.96C124.189 15.44 124.436 15.8 124.929 16.04C125.436 16.2667 126.202 16.4933 127.229 16.72C128.296 16.9733 129.169 17.2267 129.849 17.48C130.529 17.7333 131.109 18.1333 131.589 18.68C132.082 19.2267 132.329 19.9667 132.329 20.9C132.329 21.7 132.102 22.4333 131.649 23.1C131.209 23.7533 130.542 24.2733 129.649 24.66C128.756 25.0467 127.669 25.24 126.389 25.24ZM74.12 37.78H77.08V43.46C76.32 44.0333 75.44 44.4733 74.44 44.78C73.44 45.0867 72.4333 45.24 71.42 45.24C69.9667 45.24 68.66 44.9333 67.5 44.32C66.34 43.6933 65.4267 42.8333 64.76 41.74C64.1067 40.6333 63.78 39.3867 63.78 38C63.78 36.6133 64.1067 35.3733 64.76 34.28C65.4267 33.1733 66.3467 32.3133 67.52 31.7C68.6933 31.0733 70.0133 30.76 71.48 30.76C72.7067 30.76 73.82 30.9667 74.82 31.38C75.82 31.7933 76.66 32.3933 77.34 33.18L75.26 35.1C74.26 34.0467 73.0533 33.52 71.64 33.52C70.7467 33.52 69.9533 33.7067 69.26 34.08C68.5667 34.4533 68.0267 34.98 67.64 35.66C67.2533 36.34 67.06 37.12 67.06 38C67.06 38.8667 67.2533 39.64 67.64 40.32C68.0267 41 68.56 41.5333 69.24 41.92C69.9333 42.2933 70.72 42.48 71.6 42.48C72.5333 42.48 73.3733 42.28 74.12 41.88V37.78ZM90.9297 42.4V45H80.0897V31H90.6697V33.6H83.3097V36.64H89.8097V39.16H83.3097V42.4H90.9297ZM102.428 45L99.7277 41.1H99.5677H96.7477V45H93.5077V31H99.5677C100.808 31 101.881 31.2067 102.788 31.62C103.708 32.0333 104.414 32.62 104.908 33.38C105.401 34.14 105.648 35.04 105.648 36.08C105.648 37.12 105.394 38.02 104.888 38.78C104.394 39.5267 103.688 40.1 102.768 40.5L105.908 45H102.428ZM102.368 36.08C102.368 35.2933 102.114 34.6933 101.608 34.28C101.101 33.8533 100.361 33.64 99.3877 33.64H96.7477V38.52H99.3877C100.361 38.52 101.101 38.3067 101.608 37.88C102.114 37.4533 102.368 36.8533 102.368 36.08ZM117.435 42H110.935L109.695 45H106.375L112.615 31H115.815L122.075 45H118.675L117.435 42ZM116.415 39.54L114.195 34.18L111.975 39.54H116.415ZM123.527 31H126.767V45H123.527V31ZM134.69 45.24C133.583 45.24 132.51 45.0933 131.47 44.8C130.443 44.4933 129.616 44.1 128.99 43.62L130.09 41.18C130.69 41.62 131.403 41.9733 132.23 42.24C133.056 42.5067 133.883 42.64 134.71 42.64C135.63 42.64 136.31 42.5067 136.75 42.24C137.19 41.96 137.41 41.5933 137.41 41.14C137.41 40.8067 137.276 40.5333 137.01 40.32C136.756 40.0933 136.423 39.9133 136.01 39.78C135.61 39.6467 135.063 39.5 134.37 39.34C133.303 39.0867 132.43 38.8333 131.75 38.58C131.07 38.3267 130.483 37.92 129.99 37.36C129.51 36.8 129.27 36.0533 129.27 35.12C129.27 34.3067 129.49 33.5733 129.93 32.92C130.37 32.2533 131.03 31.7267 131.91 31.34C132.803 30.9533 133.89 30.76 135.17 30.76C136.063 30.76 136.936 30.8667 137.79 31.08C138.643 31.2933 139.39 31.6 140.03 32L139.03 34.46C137.736 33.7267 136.443 33.36 135.15 33.36C134.243 33.36 133.57 33.5067 133.13 33.8C132.703 34.0933 132.49 34.48 132.49 34.96C132.49 35.44 132.736 35.8 133.23 36.04C133.736 36.2667 134.503 36.4933 135.53 36.72C136.596 36.9733 137.47 37.2267 138.15 37.48C138.83 37.7333 139.41 38.1333 139.89 38.68C140.383 39.2267 140.63 39.9667 140.63 40.9C140.63 41.7 140.403 42.4333 139.95 43.1C139.51 43.7533 138.843 44.2733 137.95 44.66C137.056 45.0467 135.97 45.24 134.69 45.24Z" fill="white"/>
</g>
<defs>
<filter id="filter0_d" x="0" y="0" width="55.9615" height="49" filterUnits="userSpaceOnUse" color-interpolation-filters="sRGB">
<feFlood flood-opacity="0" result="BackgroundImageFix"/>
<feColorMatrix in="SourceAlpha" type="matrix" values="0 0 0 0 0 0 0 0 0 0 0 0 0 0 0 0 0 0 127 0"/>
<feOffset dx="2" dy="1"/>
<feGaussianBlur stdDeviation="1"/>
<feColorMatrix type="matrix" values="0 0 0 0 0 0 0 0 0 0 0 0 0 0 0 0 0 0 0.25 0"/>
<feBlend mode="darken" in2="BackgroundImageFix" result="effect1_dropShadow"/>
<feBlend mode="normal" in="SourceGraphic" in2="effect1_dropShadow" result="shape"/>
</filter>
<filter id="filter1_i" x="2.41797" y="6.83691" width="36.2078" height="36.3565" filterUnits="userSpaceOnUse" color-interpolation-filters="sRGB">
<feFlood flood-opacity="0" result="BackgroundImageFix"/>
<feBlend mode="normal" in="SourceGraphic" in2="BackgroundImageFix" result="shape"/>
<feColorMatrix in="SourceAlpha" type="matrix" values="0 0 0 0 0 0 0 0 0 0 0 0 0 0 0 0 0 0 127 0" result="hardAlpha"/>
<feOffset dx="1" dy="1"/>
<feGaussianBlur stdDeviation="1"/>
<feComposite in2="hardAlpha" operator="arithmetic" k2="-1" k3="1"/>
<feColorMatrix type="matrix" values="0 0 0 0 0 0 0 0 0 0 0 0 0 0 0 0 0 0 0.15 0"/>
<feBlend mode="normal" in2="shape" result="effect1_innerShadow"/>
</filter>
<filter id="filter2_d" x="60.7798" y="7.75977" width="84.8497" height="42.48" filterUnits="userSpaceOnUse" color-interpolation-filters="sRGB">
<feFlood flood-opacity="0" result="BackgroundImageFix"/>
<feColorMatrix in="SourceAlpha" type="matrix" values="0 0 0 0 0 0 0 0 0 0 0 0 0 0 0 0 0 0 127 0"/>
<feOffset dx="1" dy="1"/>
<feGaussianBlur stdDeviation="2"/>
<feColorMatrix type="matrix" values="0 0 0 0 0 0 0 0 0 0 0 0 0 0 0 0 0 0 0.25 0"/>
<feBlend mode="normal" in2="BackgroundImageFix" result="effect1_dropShadow"/>
<feBlend mode="normal" in="SourceGraphic" in2="effect1_dropShadow" result="shape"/>
</filter>
</defs>
</svg>
